<?xml version="1.0" encoding="utf-8" standalone="no"?>
<!DOCTYPE svg PUBLIC "-//W3C//DTD SVG 1.1//EN"
  "http://www.w3.org/Graphics/SVG/1.1/DTD/svg11.dtd">
<!-- Created with matplotlib (https://matplotlib.org/) -->
<svg height="248.518125pt" version="1.1" viewBox="0 0 390.029687 248.518125" width="390.029687pt" xmlns="http://www.w3.org/2000/svg" xmlns:xlink="http://www.w3.org/1999/xlink">
 <defs>
  <style type="text/css">
*{stroke-linecap:butt;stroke-linejoin:round;}
  </style>
 </defs>
 <g id="figure_1">
  <g id="patch_1">
   <path d="M 0 248.518125 
L 390.029687 248.518125 
L 390.029687 0 
L 0 0 
z
" style="fill:#ffffff;"/>
  </g>
  <g id="axes_1">
   <g id="patch_2">
    <path d="M 48.029688 224.64 
L 382.829688 224.64 
L 382.829688 7.2 
L 48.029688 7.2 
z
" style="fill:#ffffff;"/>
   </g>
   <g id="PathCollection_1">
    <defs>
     <path d="M 0 2.236068 
C 0.593012 2.236068 1.161816 2.000462 1.581139 1.581139 
C 2.000462 1.161816 2.236068 0.593012 2.236068 0 
C 2.236068 -0.593012 2.000462 -1.161816 1.581139 -1.581139 
C 1.161816 -2.000462 0.593012 -2.236068 0 -2.236068 
C -0.593012 -2.236068 -1.161816 -2.000462 -1.581139 -1.581139 
C -2.000462 -1.161816 -2.236068 -0.593012 -2.236068 0 
C -2.236068 0.593012 -2.000462 1.161816 -1.581139 1.581139 
C -1.161816 2.000462 -0.593012 2.236068 0 2.236068 
z
" id="m478dacfaa2" style="stroke:#0000ff;"/>
    </defs>
    <g clip-path="url(#p74a86735dd)">
     <use style="fill:#0000ff;stroke:#0000ff;" x="93.684233" xlink:href="#m478dacfaa2" y="134.23571"/>
     <use style="fill:#0000ff;stroke:#0000ff;" x="124.120597" xlink:href="#m478dacfaa2" y="131.89381"/>
     <use style="fill:#0000ff;stroke:#0000ff;" x="154.55696" xlink:href="#m478dacfaa2" y="148.981113"/>
     <use style="fill:#0000ff;stroke:#0000ff;" x="184.993324" xlink:href="#m478dacfaa2" y="146.548837"/>
     <use style="fill:#0000ff;stroke:#0000ff;" x="215.429688" xlink:href="#m478dacfaa2" y="120.384652"/>
     <use style="fill:#0000ff;stroke:#0000ff;" x="245.866051" xlink:href="#m478dacfaa2" y="93.863295"/>
     <use style="fill:#0000ff;stroke:#0000ff;" x="276.302415" xlink:href="#m478dacfaa2" y="90.359502"/>
     <use style="fill:#0000ff;stroke:#0000ff;" x="306.738778" xlink:href="#m478dacfaa2" y="105.660944"/>
    </g>
   </g>
   <g id="matplotlib.axis_1">
    <g id="xtick_1">
     <g id="line2d_1">
      <defs>
       <path d="M 0 0 
L 0 3.5 
" id="m5abbe49f5f" style="stroke:#000000;stroke-width:0.8;"/>
      </defs>
      <g>
       <use style="stroke:#000000;stroke-width:0.8;" x="93.684233" xlink:href="#m5abbe49f5f" y="224.64"/>
      </g>
     </g>
     <g id="text_1">
      <!-- −4 -->
      <defs>
       <path d="M 10.59375 35.5 
L 73.1875 35.5 
L 73.1875 27.203125 
L 10.59375 27.203125 
z
" id="DejaVuSans-8722"/>
       <path d="M 37.796875 64.3125 
L 12.890625 25.390625 
L 37.796875 25.390625 
z
M 35.203125 72.90625 
L 47.609375 72.90625 
L 47.609375 25.390625 
L 58.015625 25.390625 
L 58.015625 17.1875 
L 47.609375 17.1875 
L 47.609375 0 
L 37.796875 0 
L 37.796875 17.1875 
L 4.890625 17.1875 
L 4.890625 26.703125 
z
" id="DejaVuSans-52"/>
      </defs>
      <g transform="translate(86.313139 239.238437)scale(0.1 -0.1)">
       <use xlink:href="#DejaVuSans-8722"/>
       <use x="83.789062" xlink:href="#DejaVuSans-52"/>
      </g>
     </g>
    </g>
    <g id="xtick_2">
     <g id="line2d_2">
      <g>
       <use style="stroke:#000000;stroke-width:0.8;" x="154.55696" xlink:href="#m5abbe49f5f" y="224.64"/>
      </g>
     </g>
     <g id="text_2">
      <!-- −2 -->
      <defs>
       <path d="M 19.1875 8.296875 
L 53.609375 8.296875 
L 53.609375 0 
L 7.328125 0 
L 7.328125 8.296875 
Q 12.9375 14.109375 22.625 23.890625 
Q 32.328125 33.6875 34.8125 36.53125 
Q 39.546875 41.84375 41.421875 45.53125 
Q 43.3125 49.21875 43.3125 52.78125 
Q 43.3125 58.59375 39.234375 62.25 
Q 35.15625 65.921875 28.609375 65.921875 
Q 23.96875 65.921875 18.8125 64.3125 
Q 13.671875 62.703125 7.8125 59.421875 
L 7.8125 69.390625 
Q 13.765625 71.78125 18.9375 73 
Q 24.125 74.21875 28.421875 74.21875 
Q 39.75 74.21875 46.484375 68.546875 
Q 53.21875 62.890625 53.21875 53.421875 
Q 53.21875 48.921875 51.53125 44.890625 
Q 49.859375 40.875 45.40625 35.40625 
Q 44.1875 33.984375 37.640625 27.21875 
Q 31.109375 20.453125 19.1875 8.296875 
z
" id="DejaVuSans-50"/>
      </defs>
      <g transform="translate(147.185866 239.238437)scale(0.1 -0.1)">
       <use xlink:href="#DejaVuSans-8722"/>
       <use x="83.789062" xlink:href="#DejaVuSans-50"/>
      </g>
     </g>
    </g>
    <g id="xtick_3">
     <g id="line2d_3">
      <g>
       <use style="stroke:#000000;stroke-width:0.8;" x="215.429688" xlink:href="#m5abbe49f5f" y="224.64"/>
      </g>
     </g>
     <g id="text_3">
      <!-- 0 -->
      <defs>
       <path d="M 31.78125 66.40625 
Q 24.171875 66.40625 20.328125 58.90625 
Q 16.5 51.421875 16.5 36.375 
Q 16.5 21.390625 20.328125 13.890625 
Q 24.171875 6.390625 31.78125 6.390625 
Q 39.453125 6.390625 43.28125 13.890625 
Q 47.125 21.390625 47.125 36.375 
Q 47.125 51.421875 43.28125 58.90625 
Q 39.453125 66.40625 31.78125 66.40625 
z
M 31.78125 74.21875 
Q 44.046875 74.21875 50.515625 64.515625 
Q 56.984375 54.828125 56.984375 36.375 
Q 56.984375 17.96875 50.515625 8.265625 
Q 44.046875 -1.421875 31.78125 -1.421875 
Q 19.53125 -1.421875 13.0625 8.265625 
Q 6.59375 17.96875 6.59375 36.375 
Q 6.59375 54.828125 13.0625 64.515625 
Q 19.53125 74.21875 31.78125 74.21875 
z
" id="DejaVuSans-48"/>
      </defs>
      <g transform="translate(212.248437 239.238437)scale(0.1 -0.1)">
       <use xlink:href="#DejaVuSans-48"/>
      </g>
     </g>
    </g>
    <g id="xtick_4">
     <g id="line2d_4">
      <g>
       <use style="stroke:#000000;stroke-width:0.8;" x="276.302415" xlink:href="#m5abbe49f5f" y="224.64"/>
      </g>
     </g>
     <g id="text_4">
      <!-- 2 -->
      <g transform="translate(273.121165 239.238437)scale(0.1 -0.1)">
       <use xlink:href="#DejaVuSans-50"/>
      </g>
     </g>
    </g>
    <g id="xtick_5">
     <g id="line2d_5">
      <g>
       <use style="stroke:#000000;stroke-width:0.8;" x="337.175142" xlink:href="#m5abbe49f5f" y="224.64"/>
      </g>
     </g>
     <g id="text_5">
      <!-- 4 -->
      <g transform="translate(333.993892 239.238437)scale(0.1 -0.1)">
       <use xlink:href="#DejaVuSans-52"/>
      </g>
     </g>
    </g>
   </g>
   <g id="matplotlib.axis_2">
    <g id="ytick_1">
     <g id="line2d_6">
      <defs>
       <path d="M 0 0 
L -3.5 0 
" id="m62d52b5da1" style="stroke:#000000;stroke-width:0.8;"/>
      </defs>
      <g>
       <use style="stroke:#000000;stroke-width:0.8;" x="48.029688" xlink:href="#m62d52b5da1" y="210.570618"/>
      </g>
     </g>
     <g id="text_6">
      <!-- −2000 -->
      <g transform="translate(7.2 214.369837)scale(0.1 -0.1)">
       <use xlink:href="#DejaVuSans-8722"/>
       <use x="83.789062" xlink:href="#DejaVuSans-50"/>
       <use x="147.412109" xlink:href="#DejaVuSans-48"/>
       <use x="211.035156" xlink:href="#DejaVuSans-48"/>
       <use x="274.658203" xlink:href="#DejaVuSans-48"/>
      </g>
     </g>
    </g>
    <g id="ytick_2">
     <g id="line2d_7">
      <g>
       <use style="stroke:#000000;stroke-width:0.8;" x="48.029688" xlink:href="#m62d52b5da1" y="165.9241"/>
      </g>
     </g>
     <g id="text_7">
      <!-- −1000 -->
      <defs>
       <path d="M 12.40625 8.296875 
L 28.515625 8.296875 
L 28.515625 63.921875 
L 10.984375 60.40625 
L 10.984375 69.390625 
L 28.421875 72.90625 
L 38.28125 72.90625 
L 38.28125 8.296875 
L 54.390625 8.296875 
L 54.390625 0 
L 12.40625 0 
z
" id="DejaVuSans-49"/>
      </defs>
      <g transform="translate(7.2 169.723319)scale(0.1 -0.1)">
       <use xlink:href="#DejaVuSans-8722"/>
       <use x="83.789062" xlink:href="#DejaVuSans-49"/>
       <use x="147.412109" xlink:href="#DejaVuSans-48"/>
       <use x="211.035156" xlink:href="#DejaVuSans-48"/>
       <use x="274.658203" xlink:href="#DejaVuSans-48"/>
      </g>
     </g>
    </g>
    <g id="ytick_3">
     <g id="line2d_8">
      <g>
       <use style="stroke:#000000;stroke-width:0.8;" x="48.029688" xlink:href="#m62d52b5da1" y="121.277582"/>
      </g>
     </g>
     <g id="text_8">
      <!-- 0 -->
      <g transform="translate(34.667187 125.076801)scale(0.1 -0.1)">
       <use xlink:href="#DejaVuSans-48"/>
      </g>
     </g>
    </g>
    <g id="ytick_4">
     <g id="line2d_9">
      <g>
       <use style="stroke:#000000;stroke-width:0.8;" x="48.029688" xlink:href="#m62d52b5da1" y="76.631064"/>
      </g>
     </g>
     <g id="text_9">
      <!-- 1000 -->
      <g transform="translate(15.579687 80.430283)scale(0.1 -0.1)">
       <use xlink:href="#DejaVuSans-49"/>
       <use x="63.623047" xlink:href="#DejaVuSans-48"/>
       <use x="127.246094" xlink:href="#DejaVuSans-48"/>
       <use x="190.869141" xlink:href="#DejaVuSans-48"/>
      </g>
     </g>
    </g>
    <g id="ytick_5">
     <g id="line2d_10">
      <g>
       <use style="stroke:#000000;stroke-width:0.8;" x="48.029688" xlink:href="#m62d52b5da1" y="31.984546"/>
      </g>
     </g>
     <g id="text_10">
      <!-- 2000 -->
      <g transform="translate(15.579687 35.783765)scale(0.1 -0.1)">
       <use xlink:href="#DejaVuSans-50"/>
       <use x="63.623047" xlink:href="#DejaVuSans-48"/>
       <use x="127.246094" xlink:href="#DejaVuSans-48"/>
       <use x="190.869141" xlink:href="#DejaVuSans-48"/>
      </g>
     </g>
    </g>
   </g>
   <g id="line2d_11">
    <path clip-path="url(#p74a86735dd)" d="M 63.247869 214.756364 
L 66.3068 201.376787 
L 69.365731 189.337998 
L 72.424662 178.580909 
L 75.483593 169.045886 
L 78.542524 160.672678 
L 81.601455 153.400388 
L 84.660386 147.167466 
L 86.189852 144.421361 
L 87.719317 141.911738 
L 89.248783 139.630736 
L 90.778248 137.570468 
L 92.307714 135.723017 
L 93.83718 134.080445 
L 95.366645 132.634797 
L 96.896111 131.378102 
L 98.425576 130.302382 
L 99.955042 129.399654 
L 101.484507 128.661941 
L 103.013973 128.081271 
L 104.543438 127.649689 
L 106.072904 127.359262 
L 107.602369 127.202085 
L 109.131835 127.170288 
L 112.190766 127.451585 
L 115.249697 128.141202 
L 118.308628 129.178257 
L 121.367559 130.503189 
L 124.42649 132.058024 
L 129.014886 134.699154 
L 136.662214 139.487254 
L 142.780076 143.234523 
L 147.368472 145.775023 
L 150.427403 147.272178 
L 153.486334 148.575712 
L 156.545265 149.65874 
L 159.604196 150.498333 
L 162.663127 151.075597 
L 165.722058 151.375713 
L 168.780989 151.38795 
L 171.83992 151.105648 
L 174.898852 150.526164 
L 177.957783 149.650792 
L 181.016714 148.484646 
L 184.075645 147.036515 
L 187.134576 145.318684 
L 190.193507 143.346731 
L 193.252438 141.139294 
L 196.311369 138.717812 
L 200.899765 134.737269 
L 205.488162 130.419392 
L 211.606024 124.308757 
L 225.371213 110.311805 
L 229.95961 105.950636 
L 234.548006 101.910566 
L 237.606937 99.440379 
L 240.665868 97.177023 
L 243.724799 95.141935 
L 246.78373 93.353754 
L 249.842661 91.828057 
L 252.901592 90.57713 
L 255.960523 89.609761 
L 259.019455 88.931066 
L 262.078386 88.542336 
L 265.137317 88.44093 
L 268.196248 88.620188 
L 271.255179 89.069378 
L 274.31411 89.773682 
L 277.373041 90.714205 
L 280.431972 91.86802 
L 283.490903 93.208239 
L 288.079299 95.499808 
L 294.197161 98.889914 
L 301.844489 103.190973 
L 306.432885 105.518232 
L 309.491816 106.854801 
L 312.550747 107.954251 
L 315.609678 108.758609 
L 318.668609 109.208314 
L 320.198075 109.28119 
L 321.72754 109.242482 
L 323.257006 109.084416 
L 324.786471 108.799165 
L 326.315937 108.37886 
L 327.845402 107.815597 
L 329.374868 107.101442 
L 330.904333 106.22844 
L 332.433799 105.188619 
L 333.963264 103.974002 
L 335.49273 102.576606 
L 337.022195 100.988454 
L 338.551661 99.201574 
L 340.081127 97.208011 
L 341.610592 94.999826 
L 343.140058 92.569105 
L 344.669523 89.907958 
L 346.198989 87.008525 
L 349.25792 80.463536 
L 352.316851 72.871964 
L 355.375782 64.172259 
L 358.434713 54.303523 
L 361.493644 43.205505 
L 364.552575 30.818572 
L 367.611506 17.083636 
L 367.611506 17.083636 
" style="fill:none;stroke:#0000ff;stroke-dasharray:5.55,2.4;stroke-dashoffset:0;stroke-width:1.5;"/>
   </g>
   <g id="line2d_12">
    <path clip-path="url(#p74a86735dd)" d="M 251.953324 210.570618 
L 251.953324 31.984546 
" style="fill:none;stroke:#ff0000;stroke-dasharray:5.55,2.4;stroke-dashoffset:0;stroke-width:1.5;"/>
   </g>
   <g id="patch_3">
    <path d="M 48.029688 224.64 
L 48.029688 7.2 
" style="fill:none;stroke:#000000;stroke-linecap:square;stroke-linejoin:miter;stroke-width:0.8;"/>
   </g>
   <g id="patch_4">
    <path d="M 382.829688 224.64 
L 382.829688 7.2 
" style="fill:none;stroke:#000000;stroke-linecap:square;stroke-linejoin:miter;stroke-width:0.8;"/>
   </g>
   <g id="patch_5">
    <path d="M 48.029687 224.64 
L 382.829687 224.64 
" style="fill:none;stroke:#000000;stroke-linecap:square;stroke-linejoin:miter;stroke-width:0.8;"/>
   </g>
   <g id="patch_6">
    <path d="M 48.029687 7.2 
L 382.829687 7.2 
" style="fill:none;stroke:#000000;stroke-linecap:square;stroke-linejoin:miter;stroke-width:0.8;"/>
   </g>
  </g>
 </g>
 <defs>
  <clipPath id="p74a86735dd">
   <rect height="217.44" width="334.8" x="48.029688" y="7.2"/>
  </clipPath>
 </defs>
</svg>
