<?xml version="1.0" encoding="utf-8" standalone="no"?>
<!DOCTYPE svg PUBLIC "-//W3C//DTD SVG 1.1//EN"
  "http://www.w3.org/Graphics/SVG/1.1/DTD/svg11.dtd">
<!-- Created with matplotlib (https://matplotlib.org/) -->
<svg height="248.518125pt" version="1.1" viewBox="0 0 390.029687 248.518125" width="390.029687pt" xmlns="http://www.w3.org/2000/svg" xmlns:xlink="http://www.w3.org/1999/xlink">
 <defs>
  <style type="text/css">
*{stroke-linecap:butt;stroke-linejoin:round;}
  </style>
 </defs>
 <g id="figure_1">
  <g id="patch_1">
   <path d="M 0 248.518125 
L 390.029687 248.518125 
L 390.029687 0 
L 0 0 
z
" style="fill:#ffffff;"/>
  </g>
  <g id="axes_1">
   <g id="patch_2">
    <path d="M 48.029688 224.64 
L 382.829688 224.64 
L 382.829688 7.2 
L 48.029688 7.2 
z
" style="fill:#ffffff;"/>
   </g>
   <g id="PathCollection_1">
    <defs>
     <path d="M 0 2.236068 
C 0.593012 2.236068 1.161816 2.000462 1.581139 1.581139 
C 2.000462 1.161816 2.236068 0.593012 2.236068 0 
C 2.236068 -0.593012 2.000462 -1.161816 1.581139 -1.581139 
C 1.161816 -2.000462 0.593012 -2.236068 0 -2.236068 
C -0.593012 -2.236068 -1.161816 -2.000462 -1.581139 -1.581139 
C -2.000462 -1.161816 -2.236068 -0.593012 -2.236068 0 
C -2.236068 0.593012 -2.000462 1.161816 -1.581139 1.581139 
C -1.161816 2.000462 -0.593012 2.236068 0 2.236068 
z
" id="m137b3fab09" style="stroke:#0000ff;"/>
    </defs>
    <g clip-path="url(#pd58f953c22)">
     <use style="fill:#0000ff;stroke:#0000ff;" x="118.586712" xlink:href="#m137b3fab09" y="74.427385"/>
     <use style="fill:#0000ff;stroke:#0000ff;" x="146.256134" xlink:href="#m137b3fab09" y="73.340831"/>
     <use style="fill:#0000ff;stroke:#0000ff;" x="173.925555" xlink:href="#m137b3fab09" y="81.268704"/>
     <use style="fill:#0000ff;stroke:#0000ff;" x="201.594977" xlink:href="#m137b3fab09" y="80.140218"/>
     <use style="fill:#0000ff;stroke:#0000ff;" x="229.264398" xlink:href="#m137b3fab09" y="68.001009"/>
     <use style="fill:#0000ff;stroke:#0000ff;" x="256.93382" xlink:href="#m137b3fab09" y="55.696086"/>
     <use style="fill:#0000ff;stroke:#0000ff;" x="284.603241" xlink:href="#m137b3fab09" y="54.070456"/>
     <use style="fill:#0000ff;stroke:#0000ff;" x="312.272663" xlink:href="#m137b3fab09" y="61.169757"/>
    </g>
   </g>
   <g id="matplotlib.axis_1">
    <g id="xtick_1">
     <g id="line2d_1">
      <defs>
       <path d="M 0 0 
L 0 3.5 
" id="m167b5fedcd" style="stroke:#000000;stroke-width:0.8;"/>
      </defs>
      <g>
       <use style="stroke:#000000;stroke-width:0.8;" x="63.247869" xlink:href="#m167b5fedcd" y="224.64"/>
      </g>
     </g>
     <g id="text_1">
      <!-- −6 -->
      <defs>
       <path d="M 10.59375 35.5 
L 73.1875 35.5 
L 73.1875 27.203125 
L 10.59375 27.203125 
z
" id="DejaVuSans-8722"/>
       <path d="M 33.015625 40.375 
Q 26.375 40.375 22.484375 35.828125 
Q 18.609375 31.296875 18.609375 23.390625 
Q 18.609375 15.53125 22.484375 10.953125 
Q 26.375 6.390625 33.015625 6.390625 
Q 39.65625 6.390625 43.53125 10.953125 
Q 47.40625 15.53125 47.40625 23.390625 
Q 47.40625 31.296875 43.53125 35.828125 
Q 39.65625 40.375 33.015625 40.375 
z
M 52.59375 71.296875 
L 52.59375 62.3125 
Q 48.875 64.0625 45.09375 64.984375 
Q 41.3125 65.921875 37.59375 65.921875 
Q 27.828125 65.921875 22.671875 59.328125 
Q 17.53125 52.734375 16.796875 39.40625 
Q 19.671875 43.65625 24.015625 45.921875 
Q 28.375 48.1875 33.59375 48.1875 
Q 44.578125 48.1875 50.953125 41.515625 
Q 57.328125 34.859375 57.328125 23.390625 
Q 57.328125 12.15625 50.6875 5.359375 
Q 44.046875 -1.421875 33.015625 -1.421875 
Q 20.359375 -1.421875 13.671875 8.265625 
Q 6.984375 17.96875 6.984375 36.375 
Q 6.984375 53.65625 15.1875 63.9375 
Q 23.390625 74.21875 37.203125 74.21875 
Q 40.921875 74.21875 44.703125 73.484375 
Q 48.484375 72.75 52.59375 71.296875 
z
" id="DejaVuSans-54"/>
      </defs>
      <g transform="translate(55.876776 239.238437)scale(0.1 -0.1)">
       <use xlink:href="#DejaVuSans-8722"/>
       <use x="83.789062" xlink:href="#DejaVuSans-54"/>
      </g>
     </g>
    </g>
    <g id="xtick_2">
     <g id="line2d_2">
      <g>
       <use style="stroke:#000000;stroke-width:0.8;" x="118.586712" xlink:href="#m167b5fedcd" y="224.64"/>
      </g>
     </g>
     <g id="text_2">
      <!-- −4 -->
      <defs>
       <path d="M 37.796875 64.3125 
L 12.890625 25.390625 
L 37.796875 25.390625 
z
M 35.203125 72.90625 
L 47.609375 72.90625 
L 47.609375 25.390625 
L 58.015625 25.390625 
L 58.015625 17.1875 
L 47.609375 17.1875 
L 47.609375 0 
L 37.796875 0 
L 37.796875 17.1875 
L 4.890625 17.1875 
L 4.890625 26.703125 
z
" id="DejaVuSans-52"/>
      </defs>
      <g transform="translate(111.215619 239.238437)scale(0.1 -0.1)">
       <use xlink:href="#DejaVuSans-8722"/>
       <use x="83.789062" xlink:href="#DejaVuSans-52"/>
      </g>
     </g>
    </g>
    <g id="xtick_3">
     <g id="line2d_3">
      <g>
       <use style="stroke:#000000;stroke-width:0.8;" x="173.925555" xlink:href="#m167b5fedcd" y="224.64"/>
      </g>
     </g>
     <g id="text_3">
      <!-- −2 -->
      <defs>
       <path d="M 19.1875 8.296875 
L 53.609375 8.296875 
L 53.609375 0 
L 7.328125 0 
L 7.328125 8.296875 
Q 12.9375 14.109375 22.625 23.890625 
Q 32.328125 33.6875 34.8125 36.53125 
Q 39.546875 41.84375 41.421875 45.53125 
Q 43.3125 49.21875 43.3125 52.78125 
Q 43.3125 58.59375 39.234375 62.25 
Q 35.15625 65.921875 28.609375 65.921875 
Q 23.96875 65.921875 18.8125 64.3125 
Q 13.671875 62.703125 7.8125 59.421875 
L 7.8125 69.390625 
Q 13.765625 71.78125 18.9375 73 
Q 24.125 74.21875 28.421875 74.21875 
Q 39.75 74.21875 46.484375 68.546875 
Q 53.21875 62.890625 53.21875 53.421875 
Q 53.21875 48.921875 51.53125 44.890625 
Q 49.859375 40.875 45.40625 35.40625 
Q 44.1875 33.984375 37.640625 27.21875 
Q 31.109375 20.453125 19.1875 8.296875 
z
" id="DejaVuSans-50"/>
      </defs>
      <g transform="translate(166.554462 239.238437)scale(0.1 -0.1)">
       <use xlink:href="#DejaVuSans-8722"/>
       <use x="83.789062" xlink:href="#DejaVuSans-50"/>
      </g>
     </g>
    </g>
    <g id="xtick_4">
     <g id="line2d_4">
      <g>
       <use style="stroke:#000000;stroke-width:0.8;" x="229.264398" xlink:href="#m167b5fedcd" y="224.64"/>
      </g>
     </g>
     <g id="text_4">
      <!-- 0 -->
      <defs>
       <path d="M 31.78125 66.40625 
Q 24.171875 66.40625 20.328125 58.90625 
Q 16.5 51.421875 16.5 36.375 
Q 16.5 21.390625 20.328125 13.890625 
Q 24.171875 6.390625 31.78125 6.390625 
Q 39.453125 6.390625 43.28125 13.890625 
Q 47.125 21.390625 47.125 36.375 
Q 47.125 51.421875 43.28125 58.90625 
Q 39.453125 66.40625 31.78125 66.40625 
z
M 31.78125 74.21875 
Q 44.046875 74.21875 50.515625 64.515625 
Q 56.984375 54.828125 56.984375 36.375 
Q 56.984375 17.96875 50.515625 8.265625 
Q 44.046875 -1.421875 31.78125 -1.421875 
Q 19.53125 -1.421875 13.0625 8.265625 
Q 6.59375 17.96875 6.59375 36.375 
Q 6.59375 54.828125 13.0625 64.515625 
Q 19.53125 74.21875 31.78125 74.21875 
z
" id="DejaVuSans-48"/>
      </defs>
      <g transform="translate(226.083148 239.238437)scale(0.1 -0.1)">
       <use xlink:href="#DejaVuSans-48"/>
      </g>
     </g>
    </g>
    <g id="xtick_5">
     <g id="line2d_5">
      <g>
       <use style="stroke:#000000;stroke-width:0.8;" x="284.603241" xlink:href="#m167b5fedcd" y="224.64"/>
      </g>
     </g>
     <g id="text_5">
      <!-- 2 -->
      <g transform="translate(281.421991 239.238437)scale(0.1 -0.1)">
       <use xlink:href="#DejaVuSans-50"/>
      </g>
     </g>
    </g>
    <g id="xtick_6">
     <g id="line2d_6">
      <g>
       <use style="stroke:#000000;stroke-width:0.8;" x="339.942084" xlink:href="#m167b5fedcd" y="224.64"/>
      </g>
     </g>
     <g id="text_6">
      <!-- 4 -->
      <g transform="translate(336.760834 239.238437)scale(0.1 -0.1)">
       <use xlink:href="#DejaVuSans-52"/>
      </g>
     </g>
    </g>
   </g>
   <g id="matplotlib.axis_2">
    <g id="ytick_1">
     <g id="line2d_7">
      <defs>
       <path d="M 0 0 
L -3.5 0 
" id="m9e17cbdbd5" style="stroke:#000000;stroke-width:0.8;"/>
      </defs>
      <g>
       <use style="stroke:#000000;stroke-width:0.8;" x="48.029688" xlink:href="#m9e17cbdbd5" y="192.701241"/>
      </g>
     </g>
     <g id="text_7">
      <!-- −6000 -->
      <g transform="translate(7.2 196.50046)scale(0.1 -0.1)">
       <use xlink:href="#DejaVuSans-8722"/>
       <use x="83.789062" xlink:href="#DejaVuSans-54"/>
       <use x="147.412109" xlink:href="#DejaVuSans-48"/>
       <use x="211.035156" xlink:href="#DejaVuSans-48"/>
       <use x="274.658203" xlink:href="#DejaVuSans-48"/>
      </g>
     </g>
    </g>
    <g id="ytick_2">
     <g id="line2d_8">
      <g>
       <use style="stroke:#000000;stroke-width:0.8;" x="48.029688" xlink:href="#m9e17cbdbd5" y="151.272593"/>
      </g>
     </g>
     <g id="text_8">
      <!-- −4000 -->
      <g transform="translate(7.2 155.071812)scale(0.1 -0.1)">
       <use xlink:href="#DejaVuSans-8722"/>
       <use x="83.789062" xlink:href="#DejaVuSans-52"/>
       <use x="147.412109" xlink:href="#DejaVuSans-48"/>
       <use x="211.035156" xlink:href="#DejaVuSans-48"/>
       <use x="274.658203" xlink:href="#DejaVuSans-48"/>
      </g>
     </g>
    </g>
    <g id="ytick_3">
     <g id="line2d_9">
      <g>
       <use style="stroke:#000000;stroke-width:0.8;" x="48.029688" xlink:href="#m9e17cbdbd5" y="109.843944"/>
      </g>
     </g>
     <g id="text_9">
      <!-- −2000 -->
      <g transform="translate(7.2 113.643163)scale(0.1 -0.1)">
       <use xlink:href="#DejaVuSans-8722"/>
       <use x="83.789062" xlink:href="#DejaVuSans-50"/>
       <use x="147.412109" xlink:href="#DejaVuSans-48"/>
       <use x="211.035156" xlink:href="#DejaVuSans-48"/>
       <use x="274.658203" xlink:href="#DejaVuSans-48"/>
      </g>
     </g>
    </g>
    <g id="ytick_4">
     <g id="line2d_10">
      <g>
       <use style="stroke:#000000;stroke-width:0.8;" x="48.029688" xlink:href="#m9e17cbdbd5" y="68.415296"/>
      </g>
     </g>
     <g id="text_10">
      <!-- 0 -->
      <g transform="translate(34.667187 72.214515)scale(0.1 -0.1)">
       <use xlink:href="#DejaVuSans-48"/>
      </g>
     </g>
    </g>
    <g id="ytick_5">
     <g id="line2d_11">
      <g>
       <use style="stroke:#000000;stroke-width:0.8;" x="48.029688" xlink:href="#m9e17cbdbd5" y="26.986647"/>
      </g>
     </g>
     <g id="text_11">
      <!-- 2000 -->
      <g transform="translate(15.579687 30.785866)scale(0.1 -0.1)">
       <use xlink:href="#DejaVuSans-50"/>
       <use x="63.623047" xlink:href="#DejaVuSans-48"/>
       <use x="127.246094" xlink:href="#DejaVuSans-48"/>
       <use x="190.869141" xlink:href="#DejaVuSans-48"/>
      </g>
     </g>
    </g>
   </g>
   <g id="line2d_12">
    <path clip-path="url(#pd58f953c22)" d="M 63.247869 213.341184 
L 66.3068 198.11729 
L 69.365731 183.975921 
L 72.424662 170.87787 
L 75.483593 158.785034 
L 78.542524 147.660165 
L 81.601455 137.466645 
L 84.660386 128.168278 
L 87.719317 119.729092 
L 90.778248 112.113174 
L 93.83718 105.284524 
L 96.896111 99.206928 
L 99.955042 93.843866 
L 103.013973 89.158437 
L 106.072904 85.113315 
L 109.131835 81.670731 
L 112.190766 78.792482 
L 115.249697 76.439961 
L 118.308628 74.574214 
L 121.367559 73.156028 
L 124.42649 72.146024 
L 127.485421 71.504788 
L 130.544352 71.193008 
L 133.603283 71.171633 
L 136.662214 71.402043 
L 139.721145 71.84623 
L 142.780076 72.466989 
L 147.368472 73.650319 
L 153.486334 75.518722 
L 164.192593 78.889923 
L 168.780989 80.138889 
L 173.369386 81.162789 
L 177.957783 81.904213 
L 181.016714 82.219372 
L 184.075645 82.379709 
L 187.134576 82.378473 
L 190.193507 82.211675 
L 193.252438 81.878048 
L 196.311369 81.378989 
L 199.3703 80.718457 
L 203.958696 79.439557 
L 208.547093 77.843506 
L 213.135489 75.971871 
L 217.723886 73.875054 
L 223.841748 70.829198 
L 242.195334 61.434909 
L 246.78373 59.370305 
L 251.372127 57.537875 
L 255.960523 55.985518 
L 260.54892 54.751811 
L 263.607851 54.120572 
L 266.666782 53.648867 
L 269.725713 53.339502 
L 272.784644 53.192674 
L 275.843575 53.205884 
L 278.902506 53.373893 
L 283.490903 53.897859 
L 288.079299 54.712708 
L 292.667696 55.765929 
L 298.785558 57.425505 
L 311.021282 60.865358 
L 315.609678 61.889453 
L 318.668609 62.401004 
L 321.72754 62.733602 
L 324.786471 62.850081 
L 327.845402 62.712467 
L 330.904333 62.282163 
L 333.963264 61.520135 
L 337.022195 60.387078 
L 340.081127 58.84358 
L 343.140058 56.850259 
L 346.198989 54.367889 
L 349.25792 51.357504 
L 352.316851 47.780481 
L 355.375782 43.598596 
L 358.434713 38.77406 
L 361.493644 33.269528 
L 364.552575 27.04808 
L 367.611506 20.073179 
L 367.611506 20.073179 
" style="fill:none;stroke:#0000ff;stroke-dasharray:5.55,2.4;stroke-dashoffset:0;stroke-width:1.5;"/>
   </g>
   <g id="line2d_13">
    <path clip-path="url(#pd58f953c22)" d="M 63.247869 74.427385 
L 132.073817 74.427385 
L 133.603283 73.340831 
L 159.604196 73.340831 
L 161.133662 81.268704 
L 187.134576 81.268704 
L 188.664041 80.140218 
L 214.664955 80.140218 
L 216.19442 68.001009 
L 242.195334 68.001009 
L 243.724799 55.696086 
L 269.725713 55.696086 
L 271.255179 54.070456 
L 297.256092 54.070456 
L 298.785558 61.169757 
L 367.611506 61.169757 
L 367.611506 61.169757 
" style="fill:none;stroke:#1f77b4;stroke-linecap:square;stroke-width:1.5;"/>
   </g>
   <g id="line2d_14">
    <path clip-path="url(#pd58f953c22)" d="M 63.247869 103.280345 
L 132.073817 67.395382 
L 133.603283 69.892934 
L 159.604196 76.978172 
L 161.133662 78.881263 
L 187.134576 83.733996 
L 188.664041 83.733756 
L 214.664955 76.508041 
L 216.19442 74.869838 
L 242.195334 61.205254 
L 243.724799 59.525124 
L 269.725713 51.987965 
L 271.255179 51.898984 
L 297.256092 56.128831 
L 298.785558 57.979179 
L 367.611506 74.260992 
L 367.611506 74.260992 
" style="fill:none;stroke:#ff7f0e;stroke-linecap:square;stroke-width:1.5;"/>
   </g>
   <g id="line2d_15">
    <path clip-path="url(#pd58f953c22)" d="M 63.247869 175.936324 
L 67.836266 161.995012 
L 72.424662 149.052694 
L 75.483593 140.979479 
L 78.542524 133.350261 
L 81.601455 126.165041 
L 84.660386 119.423818 
L 87.719317 113.126594 
L 90.778248 107.273366 
L 93.83718 101.864136 
L 96.896111 96.898904 
L 99.955042 92.377669 
L 103.013973 88.300432 
L 106.072904 84.667193 
L 109.131835 81.47795 
L 112.190766 78.732706 
L 115.249697 76.431459 
L 118.308628 74.57421 
L 121.367559 73.160958 
L 124.42649 72.191703 
L 127.485421 71.666447 
L 130.544352 71.585187 
L 132.073817 71.711057 
L 133.603283 70.753223 
L 138.191679 71.492746 
L 142.780076 72.458536 
L 147.368472 73.650591 
L 151.956869 75.068913 
L 156.545265 76.7135 
L 159.604196 77.935595 
L 161.133662 77.7556 
L 165.722058 79.274675 
L 170.310455 80.504088 
L 174.898852 81.44384 
L 179.487248 82.093931 
L 184.075645 82.454361 
L 187.134576 82.533724 
L 193.252438 81.904037 
L 197.840834 81.071198 
L 202.429231 79.902831 
L 207.017627 78.398935 
L 211.606024 76.559511 
L 214.664955 75.146823 
L 216.19442 74.85135 
L 242.195334 61.187157 
L 243.724799 60.877691 
L 248.313196 58.771133 
L 252.901592 56.99099 
L 257.489989 55.537261 
L 262.078386 54.409947 
L 266.666782 53.609047 
L 271.255179 53.086093 
L 275.843575 53.156673 
L 280.431972 53.5078 
L 285.020368 54.139474 
L 289.608765 55.051696 
L 294.197161 56.244464 
L 297.256092 57.195503 
L 298.785558 56.962333 
L 303.373954 58.621972 
L 307.962351 60.046231 
L 312.550747 61.235109 
L 317.139144 62.188608 
L 321.72754 62.906727 
L 326.315937 63.389465 
L 330.904333 63.636824 
L 335.49273 63.648803 
L 340.081127 63.425401 
L 344.669523 62.96662 
L 349.25792 62.272458 
L 353.846316 61.342917 
L 358.434713 60.177995 
L 363.023109 58.777693 
L 367.611506 57.142012 
L 367.611506 57.142012 
" style="fill:none;stroke:#2ca02c;stroke-linecap:square;stroke-width:1.5;"/>
   </g>
   <g id="line2d_16">
    <path clip-path="url(#pd58f953c22)" d="M 63.247869 214.756364 
L 66.3068 199.262947 
L 69.365731 184.885871 
L 72.424662 171.585797 
L 75.483593 159.323385 
L 78.542524 148.059297 
L 81.601455 137.754193 
L 84.660386 128.368734 
L 87.719317 119.86358 
L 90.778248 112.199393 
L 93.83718 105.336832 
L 96.896111 99.23656 
L 99.955042 93.859236 
L 103.013973 89.165521 
L 106.072904 85.116077 
L 109.131835 81.671563 
L 112.190766 78.792641 
L 115.249697 76.439971 
L 118.308628 74.574214 
L 121.367559 73.156032 
L 124.42649 72.146083 
L 127.485421 71.505031 
L 130.544352 71.193534 
L 133.603283 71.156309 
L 136.662214 71.396818 
L 139.721145 71.845071 
L 144.309541 72.832215 
L 148.897938 74.094556 
L 156.545265 76.496745 
L 165.722058 79.321399 
L 170.310455 80.508087 
L 174.898852 81.443762 
L 179.487248 82.079371 
L 182.546179 82.312182 
L 185.60511 82.375294 
L 190.193507 82.193096 
L 193.252438 81.87279 
L 196.311369 81.378154 
L 199.3703 80.718431 
L 203.958696 79.439524 
L 208.547093 77.841158 
L 213.135489 75.954523 
L 219.253351 73.13497 
L 226.900679 69.241107 
L 239.136403 62.913943 
L 243.724799 60.753662 
L 248.313196 58.736656 
L 252.901592 56.987462 
L 257.489989 55.53727 
L 262.078386 54.417274 
L 265.137317 53.869456 
L 268.196248 53.491496 
L 272.784644 53.218161 
L 275.843575 53.213559 
L 278.902506 53.375265 
L 283.490903 53.897861 
L 288.079299 54.712895 
L 292.667696 55.771315 
L 298.785558 57.450523 
L 312.550747 61.235105 
L 317.139144 62.165674 
L 320.198075 62.594447 
L 323.257006 62.830065 
L 326.315937 62.838355 
L 329.374868 62.585143 
L 332.433799 62.036255 
L 335.49273 61.157517 
L 338.551661 59.914755 
L 341.610592 58.273796 
L 344.669523 56.200466 
L 347.728454 53.660591 
L 350.787385 50.619996 
L 353.846316 47.04451 
L 356.905247 42.899956 
L 359.964178 38.152163 
L 363.023109 32.766955 
L 366.08204 26.710159 
L 367.611506 23.419237 
L 367.611506 23.419237 
" style="fill:none;stroke:#d62728;stroke-linecap:square;stroke-width:1.5;"/>
   </g>
   <g id="line2d_17">
    <path clip-path="url(#pd58f953c22)" d="M 63.247869 214.069176 
L 66.3068 198.71556 
L 69.365731 184.455784 
L 72.424662 171.253064 
L 75.483593 159.070462 
L 78.542524 147.870883 
L 81.601455 137.617083 
L 84.660386 128.27166 
L 87.719317 119.79706 
L 90.778248 112.155574 
L 93.83718 105.309339 
L 96.896111 99.22034 
L 99.955042 93.850406 
L 103.013973 89.161212 
L 106.072904 85.11428 
L 109.131835 81.670977 
L 112.190766 78.792518 
L 115.249697 76.439962 
L 118.308628 74.574214 
L 121.367559 73.156027 
L 124.42649 72.145998 
L 127.485421 71.504571 
L 130.544352 71.192036 
L 133.603283 71.173624 
L 136.662214 71.402541 
L 139.721145 71.846303 
L 142.780076 72.466992 
L 147.368472 73.650319 
L 153.486334 75.518603 
L 164.192593 78.890116 
L 168.780989 80.138896 
L 173.369386 81.162789 
L 177.957783 81.904211 
L 181.016714 82.219344 
L 184.075645 82.379558 
L 187.134576 82.377963 
L 190.193507 82.210739 
L 193.252438 81.877847 
L 196.311369 81.378968 
L 199.3703 80.718457 
L 203.958696 79.439557 
L 208.547093 77.843596 
L 213.135489 75.973042 
L 217.723886 73.873274 
L 223.841748 70.829157 
L 242.195334 61.438051 
L 246.78373 59.369694 
L 251.372127 57.537845 
L 255.960523 55.985518 
L 260.54892 54.751814 
L 263.607851 54.120639 
L 266.666782 53.649297 
L 269.725713 53.341147 
L 272.784644 53.19298 
L 275.843575 53.20596 
L 278.902506 53.373902 
L 283.490903 53.897859 
L 288.079299 54.712707 
L 292.667696 55.765856 
L 298.785558 57.42817 
L 311.021282 60.865358 
L 315.609678 61.88945 
L 318.668609 62.400939 
L 321.72754 62.733138 
L 324.786471 62.848196 
L 327.845402 62.706842 
L 330.904333 62.268385 
L 333.963264 61.490714 
L 337.022195 60.3303 
L 340.081127 58.742192 
L 343.140058 56.680021 
L 346.198989 54.095999 
L 349.25792 50.940918 
L 352.316851 47.164148 
L 355.375782 42.713643 
L 358.434713 37.535936 
L 361.493644 31.57614 
L 364.552575 24.777949 
L 367.611506 17.083636 
L 367.611506 17.083636 
" style="fill:none;stroke:#9467bd;stroke-linecap:square;stroke-width:1.5;"/>
   </g>
   <g id="patch_3">
    <path d="M 48.029688 224.64 
L 48.029688 7.2 
" style="fill:none;stroke:#000000;stroke-linecap:square;stroke-linejoin:miter;stroke-width:0.8;"/>
   </g>
   <g id="patch_4">
    <path d="M 382.829688 224.64 
L 382.829688 7.2 
" style="fill:none;stroke:#000000;stroke-linecap:square;stroke-linejoin:miter;stroke-width:0.8;"/>
   </g>
   <g id="patch_5">
    <path d="M 48.029687 224.64 
L 382.829687 224.64 
" style="fill:none;stroke:#000000;stroke-linecap:square;stroke-linejoin:miter;stroke-width:0.8;"/>
   </g>
   <g id="patch_6">
    <path d="M 48.029687 7.2 
L 382.829687 7.2 
" style="fill:none;stroke:#000000;stroke-linecap:square;stroke-linejoin:miter;stroke-width:0.8;"/>
   </g>
   <g id="legend_1">
    <g id="patch_7">
     <path d="M 241.157813 219.64 
L 375.829687 219.64 
Q 377.829687 219.64 377.829687 217.64 
L 377.829687 130.57125 
Q 377.829687 128.57125 375.829687 128.57125 
L 241.157813 128.57125 
Q 239.157813 128.57125 239.157813 130.57125 
L 239.157813 217.64 
Q 239.157813 219.64 241.157813 219.64 
z
" style="fill:#ffffff;opacity:0.8;stroke:#cccccc;stroke-linejoin:miter;"/>
    </g>
    <g id="line2d_18">
     <path d="M 243.157813 136.669687 
L 263.157812 136.669687 
" style="fill:none;stroke:#0000ff;stroke-dasharray:5.55,2.4;stroke-dashoffset:0;stroke-width:1.5;"/>
    </g>
    <g id="line2d_19"/>
    <g id="text_12">
     <!-- f(x) -->
     <defs>
      <path d="M 37.109375 75.984375 
L 37.109375 68.5 
L 28.515625 68.5 
Q 23.6875 68.5 21.796875 66.546875 
Q 19.921875 64.59375 19.921875 59.515625 
L 19.921875 54.6875 
L 34.71875 54.6875 
L 34.71875 47.703125 
L 19.921875 47.703125 
L 19.921875 0 
L 10.890625 0 
L 10.890625 47.703125 
L 2.296875 47.703125 
L 2.296875 54.6875 
L 10.890625 54.6875 
L 10.890625 58.5 
Q 10.890625 67.625 15.140625 71.796875 
Q 19.390625 75.984375 28.609375 75.984375 
z
" id="DejaVuSans-102"/>
      <path d="M 31 75.875 
Q 24.46875 64.65625 21.28125 53.65625 
Q 18.109375 42.671875 18.109375 31.390625 
Q 18.109375 20.125 21.3125 9.0625 
Q 24.515625 -2 31 -13.1875 
L 23.1875 -13.1875 
Q 15.875 -1.703125 12.234375 9.375 
Q 8.59375 20.453125 8.59375 31.390625 
Q 8.59375 42.28125 12.203125 53.3125 
Q 15.828125 64.359375 23.1875 75.875 
z
" id="DejaVuSans-40"/>
      <path d="M 54.890625 54.6875 
L 35.109375 28.078125 
L 55.90625 0 
L 45.3125 0 
L 29.390625 21.484375 
L 13.484375 0 
L 2.875 0 
L 24.125 28.609375 
L 4.6875 54.6875 
L 15.28125 54.6875 
L 29.78125 35.203125 
L 44.28125 54.6875 
z
" id="DejaVuSans-120"/>
      <path d="M 8.015625 75.875 
L 15.828125 75.875 
Q 23.140625 64.359375 26.78125 53.3125 
Q 30.421875 42.28125 30.421875 31.390625 
Q 30.421875 20.453125 26.78125 9.375 
Q 23.140625 -1.703125 15.828125 -13.1875 
L 8.015625 -13.1875 
Q 14.5 -2 17.703125 9.0625 
Q 20.90625 20.125 20.90625 31.390625 
Q 20.90625 42.671875 17.703125 53.65625 
Q 14.5 64.65625 8.015625 75.875 
z
" id="DejaVuSans-41"/>
     </defs>
     <g transform="translate(271.157812 140.169687)scale(0.1 -0.1)">
      <use xlink:href="#DejaVuSans-102"/>
      <use x="35.205078" xlink:href="#DejaVuSans-40"/>
      <use x="74.21875" xlink:href="#DejaVuSans-120"/>
      <use x="133.398438" xlink:href="#DejaVuSans-41"/>
     </g>
    </g>
    <g id="line2d_20">
     <path d="M 243.157813 151.347812 
L 263.157812 151.347812 
" style="fill:none;stroke:#1f77b4;stroke-linecap:square;stroke-width:1.5;"/>
    </g>
    <g id="line2d_21"/>
    <g id="text_13">
     <!-- Taylor 1 1880214.93 -->
     <defs>
      <path d="M -0.296875 72.90625 
L 61.375 72.90625 
L 61.375 64.59375 
L 35.5 64.59375 
L 35.5 0 
L 25.59375 0 
L 25.59375 64.59375 
L -0.296875 64.59375 
z
" id="DejaVuSans-84"/>
      <path d="M 34.28125 27.484375 
Q 23.390625 27.484375 19.1875 25 
Q 14.984375 22.515625 14.984375 16.5 
Q 14.984375 11.71875 18.140625 8.90625 
Q 21.296875 6.109375 26.703125 6.109375 
Q 34.1875 6.109375 38.703125 11.40625 
Q 43.21875 16.703125 43.21875 25.484375 
L 43.21875 27.484375 
z
M 52.203125 31.203125 
L 52.203125 0 
L 43.21875 0 
L 43.21875 8.296875 
Q 40.140625 3.328125 35.546875 0.953125 
Q 30.953125 -1.421875 24.3125 -1.421875 
Q 15.921875 -1.421875 10.953125 3.296875 
Q 6 8.015625 6 15.921875 
Q 6 25.140625 12.171875 29.828125 
Q 18.359375 34.515625 30.609375 34.515625 
L 43.21875 34.515625 
L 43.21875 35.40625 
Q 43.21875 41.609375 39.140625 45 
Q 35.0625 48.390625 27.6875 48.390625 
Q 23 48.390625 18.546875 47.265625 
Q 14.109375 46.140625 10.015625 43.890625 
L 10.015625 52.203125 
Q 14.9375 54.109375 19.578125 55.046875 
Q 24.21875 56 28.609375 56 
Q 40.484375 56 46.34375 49.84375 
Q 52.203125 43.703125 52.203125 31.203125 
z
" id="DejaVuSans-97"/>
      <path d="M 32.171875 -5.078125 
Q 28.375 -14.84375 24.75 -17.8125 
Q 21.140625 -20.796875 15.09375 -20.796875 
L 7.90625 -20.796875 
L 7.90625 -13.28125 
L 13.1875 -13.28125 
Q 16.890625 -13.28125 18.9375 -11.515625 
Q 21 -9.765625 23.484375 -3.21875 
L 25.09375 0.875 
L 2.984375 54.6875 
L 12.5 54.6875 
L 29.59375 11.921875 
L 46.6875 54.6875 
L 56.203125 54.6875 
z
" id="DejaVuSans-121"/>
      <path d="M 9.421875 75.984375 
L 18.40625 75.984375 
L 18.40625 0 
L 9.421875 0 
z
" id="DejaVuSans-108"/>
      <path d="M 30.609375 48.390625 
Q 23.390625 48.390625 19.1875 42.75 
Q 14.984375 37.109375 14.984375 27.296875 
Q 14.984375 17.484375 19.15625 11.84375 
Q 23.34375 6.203125 30.609375 6.203125 
Q 37.796875 6.203125 41.984375 11.859375 
Q 46.1875 17.53125 46.1875 27.296875 
Q 46.1875 37.015625 41.984375 42.703125 
Q 37.796875 48.390625 30.609375 48.390625 
z
M 30.609375 56 
Q 42.328125 56 49.015625 48.375 
Q 55.71875 40.765625 55.71875 27.296875 
Q 55.71875 13.875 49.015625 6.21875 
Q 42.328125 -1.421875 30.609375 -1.421875 
Q 18.84375 -1.421875 12.171875 6.21875 
Q 5.515625 13.875 5.515625 27.296875 
Q 5.515625 40.765625 12.171875 48.375 
Q 18.84375 56 30.609375 56 
z
" id="DejaVuSans-111"/>
      <path d="M 41.109375 46.296875 
Q 39.59375 47.171875 37.8125 47.578125 
Q 36.03125 48 33.890625 48 
Q 26.265625 48 22.1875 43.046875 
Q 18.109375 38.09375 18.109375 28.8125 
L 18.109375 0 
L 9.078125 0 
L 9.078125 54.6875 
L 18.109375 54.6875 
L 18.109375 46.1875 
Q 20.953125 51.171875 25.484375 53.578125 
Q 30.03125 56 36.53125 56 
Q 37.453125 56 38.578125 55.875 
Q 39.703125 55.765625 41.0625 55.515625 
z
" id="DejaVuSans-114"/>
      <path id="DejaVuSans-32"/>
      <path d="M 12.40625 8.296875 
L 28.515625 8.296875 
L 28.515625 63.921875 
L 10.984375 60.40625 
L 10.984375 69.390625 
L 28.421875 72.90625 
L 38.28125 72.90625 
L 38.28125 8.296875 
L 54.390625 8.296875 
L 54.390625 0 
L 12.40625 0 
z
" id="DejaVuSans-49"/>
      <path d="M 31.78125 34.625 
Q 24.75 34.625 20.71875 30.859375 
Q 16.703125 27.09375 16.703125 20.515625 
Q 16.703125 13.921875 20.71875 10.15625 
Q 24.75 6.390625 31.78125 6.390625 
Q 38.8125 6.390625 42.859375 10.171875 
Q 46.921875 13.96875 46.921875 20.515625 
Q 46.921875 27.09375 42.890625 30.859375 
Q 38.875 34.625 31.78125 34.625 
z
M 21.921875 38.8125 
Q 15.578125 40.375 12.03125 44.71875 
Q 8.5 49.078125 8.5 55.328125 
Q 8.5 64.0625 14.71875 69.140625 
Q 20.953125 74.21875 31.78125 74.21875 
Q 42.671875 74.21875 48.875 69.140625 
Q 55.078125 64.0625 55.078125 55.328125 
Q 55.078125 49.078125 51.53125 44.71875 
Q 48 40.375 41.703125 38.8125 
Q 48.828125 37.15625 52.796875 32.3125 
Q 56.78125 27.484375 56.78125 20.515625 
Q 56.78125 9.90625 50.3125 4.234375 
Q 43.84375 -1.421875 31.78125 -1.421875 
Q 19.734375 -1.421875 13.25 4.234375 
Q 6.78125 9.90625 6.78125 20.515625 
Q 6.78125 27.484375 10.78125 32.3125 
Q 14.796875 37.15625 21.921875 38.8125 
z
M 18.3125 54.390625 
Q 18.3125 48.734375 21.84375 45.5625 
Q 25.390625 42.390625 31.78125 42.390625 
Q 38.140625 42.390625 41.71875 45.5625 
Q 45.3125 48.734375 45.3125 54.390625 
Q 45.3125 60.0625 41.71875 63.234375 
Q 38.140625 66.40625 31.78125 66.40625 
Q 25.390625 66.40625 21.84375 63.234375 
Q 18.3125 60.0625 18.3125 54.390625 
z
" id="DejaVuSans-56"/>
      <path d="M 10.6875 12.40625 
L 21 12.40625 
L 21 0 
L 10.6875 0 
z
" id="DejaVuSans-46"/>
      <path d="M 10.984375 1.515625 
L 10.984375 10.5 
Q 14.703125 8.734375 18.5 7.8125 
Q 22.3125 6.890625 25.984375 6.890625 
Q 35.75 6.890625 40.890625 13.453125 
Q 46.046875 20.015625 46.78125 33.40625 
Q 43.953125 29.203125 39.59375 26.953125 
Q 35.25 24.703125 29.984375 24.703125 
Q 19.046875 24.703125 12.671875 31.3125 
Q 6.296875 37.9375 6.296875 49.421875 
Q 6.296875 60.640625 12.9375 67.421875 
Q 19.578125 74.21875 30.609375 74.21875 
Q 43.265625 74.21875 49.921875 64.515625 
Q 56.59375 54.828125 56.59375 36.375 
Q 56.59375 19.140625 48.40625 8.859375 
Q 40.234375 -1.421875 26.421875 -1.421875 
Q 22.703125 -1.421875 18.890625 -0.6875 
Q 15.09375 0.046875 10.984375 1.515625 
z
M 30.609375 32.421875 
Q 37.25 32.421875 41.125 36.953125 
Q 45.015625 41.5 45.015625 49.421875 
Q 45.015625 57.28125 41.125 61.84375 
Q 37.25 66.40625 30.609375 66.40625 
Q 23.96875 66.40625 20.09375 61.84375 
Q 16.21875 57.28125 16.21875 49.421875 
Q 16.21875 41.5 20.09375 36.953125 
Q 23.96875 32.421875 30.609375 32.421875 
z
" id="DejaVuSans-57"/>
      <path d="M 40.578125 39.3125 
Q 47.65625 37.796875 51.625 33 
Q 55.609375 28.21875 55.609375 21.1875 
Q 55.609375 10.40625 48.1875 4.484375 
Q 40.765625 -1.421875 27.09375 -1.421875 
Q 22.515625 -1.421875 17.65625 -0.515625 
Q 12.796875 0.390625 7.625 2.203125 
L 7.625 11.71875 
Q 11.71875 9.328125 16.59375 8.109375 
Q 21.484375 6.890625 26.8125 6.890625 
Q 36.078125 6.890625 40.9375 10.546875 
Q 45.796875 14.203125 45.796875 21.1875 
Q 45.796875 27.640625 41.28125 31.265625 
Q 36.765625 34.90625 28.71875 34.90625 
L 20.21875 34.90625 
L 20.21875 43.015625 
L 29.109375 43.015625 
Q 36.375 43.015625 40.234375 45.921875 
Q 44.09375 48.828125 44.09375 54.296875 
Q 44.09375 59.90625 40.109375 62.90625 
Q 36.140625 65.921875 28.71875 65.921875 
Q 24.65625 65.921875 20.015625 65.03125 
Q 15.375 64.15625 9.8125 62.3125 
L 9.8125 71.09375 
Q 15.4375 72.65625 20.34375 73.4375 
Q 25.25 74.21875 29.59375 74.21875 
Q 40.828125 74.21875 47.359375 69.109375 
Q 53.90625 64.015625 53.90625 55.328125 
Q 53.90625 49.265625 50.4375 45.09375 
Q 46.96875 40.921875 40.578125 39.3125 
z
" id="DejaVuSans-51"/>
     </defs>
     <g transform="translate(271.157812 154.847812)scale(0.1 -0.1)">
      <use xlink:href="#DejaVuSans-84"/>
      <use x="44.583984" xlink:href="#DejaVuSans-97"/>
      <use x="105.863281" xlink:href="#DejaVuSans-121"/>
      <use x="165.042969" xlink:href="#DejaVuSans-108"/>
      <use x="192.826172" xlink:href="#DejaVuSans-111"/>
      <use x="254.007812" xlink:href="#DejaVuSans-114"/>
      <use x="295.121094" xlink:href="#DejaVuSans-32"/>
      <use x="326.908203" xlink:href="#DejaVuSans-49"/>
      <use x="390.53125" xlink:href="#DejaVuSans-32"/>
      <use x="422.318359" xlink:href="#DejaVuSans-49"/>
      <use x="485.941406" xlink:href="#DejaVuSans-56"/>
      <use x="549.564453" xlink:href="#DejaVuSans-56"/>
      <use x="613.1875" xlink:href="#DejaVuSans-48"/>
      <use x="676.810547" xlink:href="#DejaVuSans-50"/>
      <use x="740.433594" xlink:href="#DejaVuSans-49"/>
      <use x="804.056641" xlink:href="#DejaVuSans-52"/>
      <use x="867.679688" xlink:href="#DejaVuSans-46"/>
      <use x="899.466797" xlink:href="#DejaVuSans-57"/>
      <use x="963.089844" xlink:href="#DejaVuSans-51"/>
     </g>
    </g>
    <g id="line2d_22">
     <path d="M 243.157813 166.025937 
L 263.157812 166.025937 
" style="fill:none;stroke:#ff7f0e;stroke-linecap:square;stroke-width:1.5;"/>
    </g>
    <g id="line2d_23"/>
    <g id="text_14">
     <!-- Taylor 2 1199733.68 -->
     <defs>
      <path d="M 8.203125 72.90625 
L 55.078125 72.90625 
L 55.078125 68.703125 
L 28.609375 0 
L 18.3125 0 
L 43.21875 64.59375 
L 8.203125 64.59375 
z
" id="DejaVuSans-55"/>
     </defs>
     <g transform="translate(271.157812 169.525937)scale(0.1 -0.1)">
      <use xlink:href="#DejaVuSans-84"/>
      <use x="44.583984" xlink:href="#DejaVuSans-97"/>
      <use x="105.863281" xlink:href="#DejaVuSans-121"/>
      <use x="165.042969" xlink:href="#DejaVuSans-108"/>
      <use x="192.826172" xlink:href="#DejaVuSans-111"/>
      <use x="254.007812" xlink:href="#DejaVuSans-114"/>
      <use x="295.121094" xlink:href="#DejaVuSans-32"/>
      <use x="326.908203" xlink:href="#DejaVuSans-50"/>
      <use x="390.53125" xlink:href="#DejaVuSans-32"/>
      <use x="422.318359" xlink:href="#DejaVuSans-49"/>
      <use x="485.941406" xlink:href="#DejaVuSans-49"/>
      <use x="549.564453" xlink:href="#DejaVuSans-57"/>
      <use x="613.1875" xlink:href="#DejaVuSans-57"/>
      <use x="676.810547" xlink:href="#DejaVuSans-55"/>
      <use x="740.433594" xlink:href="#DejaVuSans-51"/>
      <use x="804.056641" xlink:href="#DejaVuSans-51"/>
      <use x="867.679688" xlink:href="#DejaVuSans-46"/>
      <use x="899.466797" xlink:href="#DejaVuSans-54"/>
      <use x="963.089844" xlink:href="#DejaVuSans-56"/>
     </g>
    </g>
    <g id="line2d_24">
     <path d="M 243.157813 180.704062 
L 263.157812 180.704062 
" style="fill:none;stroke:#2ca02c;stroke-linecap:square;stroke-width:1.5;"/>
    </g>
    <g id="line2d_25"/>
    <g id="text_15">
     <!-- Taylor 3 183635.83 -->
     <defs>
      <path d="M 10.796875 72.90625 
L 49.515625 72.90625 
L 49.515625 64.59375 
L 19.828125 64.59375 
L 19.828125 46.734375 
Q 21.96875 47.46875 24.109375 47.828125 
Q 26.265625 48.1875 28.421875 48.1875 
Q 40.625 48.1875 47.75 41.5 
Q 54.890625 34.8125 54.890625 23.390625 
Q 54.890625 11.625 47.5625 5.09375 
Q 40.234375 -1.421875 26.90625 -1.421875 
Q 22.3125 -1.421875 17.546875 -0.640625 
Q 12.796875 0.140625 7.71875 1.703125 
L 7.71875 11.625 
Q 12.109375 9.234375 16.796875 8.0625 
Q 21.484375 6.890625 26.703125 6.890625 
Q 35.15625 6.890625 40.078125 11.328125 
Q 45.015625 15.765625 45.015625 23.390625 
Q 45.015625 31 40.078125 35.4375 
Q 35.15625 39.890625 26.703125 39.890625 
Q 22.75 39.890625 18.8125 39.015625 
Q 14.890625 38.140625 10.796875 36.28125 
z
" id="DejaVuSans-53"/>
     </defs>
     <g transform="translate(271.157812 184.204062)scale(0.1 -0.1)">
      <use xlink:href="#DejaVuSans-84"/>
      <use x="44.583984" xlink:href="#DejaVuSans-97"/>
      <use x="105.863281" xlink:href="#DejaVuSans-121"/>
      <use x="165.042969" xlink:href="#DejaVuSans-108"/>
      <use x="192.826172" xlink:href="#DejaVuSans-111"/>
      <use x="254.007812" xlink:href="#DejaVuSans-114"/>
      <use x="295.121094" xlink:href="#DejaVuSans-32"/>
      <use x="326.908203" xlink:href="#DejaVuSans-51"/>
      <use x="390.53125" xlink:href="#DejaVuSans-32"/>
      <use x="422.318359" xlink:href="#DejaVuSans-49"/>
      <use x="485.941406" xlink:href="#DejaVuSans-56"/>
      <use x="549.564453" xlink:href="#DejaVuSans-51"/>
      <use x="613.1875" xlink:href="#DejaVuSans-54"/>
      <use x="676.810547" xlink:href="#DejaVuSans-51"/>
      <use x="740.433594" xlink:href="#DejaVuSans-53"/>
      <use x="804.056641" xlink:href="#DejaVuSans-46"/>
      <use x="835.84375" xlink:href="#DejaVuSans-56"/>
      <use x="899.466797" xlink:href="#DejaVuSans-51"/>
     </g>
    </g>
    <g id="line2d_26">
     <path d="M 243.157813 195.382187 
L 263.157812 195.382187 
" style="fill:none;stroke:#d62728;stroke-linecap:square;stroke-width:1.5;"/>
    </g>
    <g id="line2d_27"/>
    <g id="text_16">
     <!-- Taylor 4 789.33 -->
     <g transform="translate(271.157812 198.882187)scale(0.1 -0.1)">
      <use xlink:href="#DejaVuSans-84"/>
      <use x="44.583984" xlink:href="#DejaVuSans-97"/>
      <use x="105.863281" xlink:href="#DejaVuSans-121"/>
      <use x="165.042969" xlink:href="#DejaVuSans-108"/>
      <use x="192.826172" xlink:href="#DejaVuSans-111"/>
      <use x="254.007812" xlink:href="#DejaVuSans-114"/>
      <use x="295.121094" xlink:href="#DejaVuSans-32"/>
      <use x="326.908203" xlink:href="#DejaVuSans-52"/>
      <use x="390.53125" xlink:href="#DejaVuSans-32"/>
      <use x="422.318359" xlink:href="#DejaVuSans-55"/>
      <use x="485.941406" xlink:href="#DejaVuSans-56"/>
      <use x="549.564453" xlink:href="#DejaVuSans-57"/>
      <use x="613.1875" xlink:href="#DejaVuSans-46"/>
      <use x="644.974609" xlink:href="#DejaVuSans-51"/>
      <use x="708.597656" xlink:href="#DejaVuSans-51"/>
     </g>
    </g>
    <g id="line2d_28">
     <path d="M 243.157813 210.060312 
L 263.157812 210.060312 
" style="fill:none;stroke:#9467bd;stroke-linecap:square;stroke-width:1.5;"/>
    </g>
    <g id="line2d_29"/>
    <g id="text_17">
     <!-- Taylor 5 435.69 -->
     <g transform="translate(271.157812 213.560312)scale(0.1 -0.1)">
      <use xlink:href="#DejaVuSans-84"/>
      <use x="44.583984" xlink:href="#DejaVuSans-97"/>
      <use x="105.863281" xlink:href="#DejaVuSans-121"/>
      <use x="165.042969" xlink:href="#DejaVuSans-108"/>
      <use x="192.826172" xlink:href="#DejaVuSans-111"/>
      <use x="254.007812" xlink:href="#DejaVuSans-114"/>
      <use x="295.121094" xlink:href="#DejaVuSans-32"/>
      <use x="326.908203" xlink:href="#DejaVuSans-53"/>
      <use x="390.53125" xlink:href="#DejaVuSans-32"/>
      <use x="422.318359" xlink:href="#DejaVuSans-52"/>
      <use x="485.941406" xlink:href="#DejaVuSans-51"/>
      <use x="549.564453" xlink:href="#DejaVuSans-53"/>
      <use x="613.1875" xlink:href="#DejaVuSans-46"/>
      <use x="644.974609" xlink:href="#DejaVuSans-54"/>
      <use x="708.597656" xlink:href="#DejaVuSans-57"/>
     </g>
    </g>
   </g>
  </g>
 </g>
 <defs>
  <clipPath id="pd58f953c22">
   <rect height="217.44" width="334.8" x="48.029688" y="7.2"/>
  </clipPath>
 </defs>
</svg>
